<svg width="6" height="9" viewBox="0 0 6 9" fill="none" xmlns="http://www.w3.org/2000/svg">
<path d="M5.16595 4.47946C5.16644 4.56441 5.15016 4.64861 5.11804 4.72724C5.08592 4.80588 5.0386 4.8774 4.97878 4.93771L1.1063 8.81019C0.984764 8.93172 0.819929 9 0.648054 9C0.47618 9 0.311345 8.93172 0.189811 8.81019C0.068277 8.68866 5.67839e-09 8.52382 7.72797e-09 8.35195C9.77756e-09 8.18007 0.068277 8.01524 0.189811 7.8937L3.6105 4.47946L0.196265 1.06523C0.0905294 0.941758 0.0352778 0.782938 0.0415519 0.620502C0.0478261 0.458068 0.115164 0.303982 0.230109 0.189037C0.345053 0.0740929 0.499138 0.00675583 0.661574 0.000481613C0.824009 -0.00579261 0.982829 0.0494576 1.1063 0.155193L4.97878 4.02768C5.09801 4.14789 5.16524 4.31015 5.16595 4.47946Z" fill="#656565"/>
</svg>
